HIERARCHY
ROOT mug3
{
	OFFSET 0.000000 0.000000 0.000000
	CHANNELS 6 Xposition Yposition Zposition Yrotation Xrotation Zrotation
	End Site
	{
		OFFSET 0.000000 0.000000 0.000000
	}
}
MOTION
Frames: 168
Frame Time: 0.008333334
1.597917 6.208323 3.142684 151.360700 8.179915 -23.646060 
1.580135 6.203286 3.149463 150.007400 6.533472 -25.033050 
1.567064 6.199036 3.153908 148.805800 5.210891 -26.194950 
1.560117 6.196610 3.156379 147.632100 4.258430 -27.183530 
1.558155 6.195283 3.156727 146.755400 3.458396 -28.039030 
1.559426 6.194973 3.156627 145.843800 2.704452 -28.587740 
1.562744 6.195740 3.158352 145.075300 2.044099 -29.313320 
1.564787 6.198606 3.161554 144.395900 1.496934 -29.774660 
1.565396 6.202330 3.167006 143.927900 0.971971 -30.274230 
1.564705 6.206033 3.173805 143.734400 0.307289 -30.529020 
1.562986 6.210486 3.179709 143.440500 -0.086029 -30.830570 
1.561201 6.214426 3.185099 143.312200 -0.467590 -30.928990 
1.558516 6.218093 3.191354 143.422000 -0.632996 -30.935210 
1.554725 6.220445 3.196265 143.457000 -0.595581 -30.943240 
1.550788 6.223106 3.201060 143.581400 -0.460724 -30.886720 
1.546779 6.225762 3.205523 143.596600 -0.330292 -30.914120 
1.543537 6.229063 3.210789 143.732100 -0.336578 -30.697050 
1.540474 6.232071 3.215237 143.703800 -0.221039 -30.600220 
1.538856 6.235677 3.219297 143.739000 -0.181366 -30.476960 
1.538302 6.238716 3.223194 143.772700 -0.060669 -30.382570 
1.538299 6.241412 3.226566 143.884800 0.047425 -30.241880 
1.539697 6.244000 3.229900 143.844000 0.233130 -30.256440 
1.540411 6.247278 3.233271 143.730200 0.377354 -30.158510 
1.540570 6.252028 3.237718 143.599000 0.325900 -29.879760 
1.541306 6.257687 3.243056 143.409200 0.303989 -29.903720 
1.541245 6.263583 3.248753 143.352800 0.282558 -29.718900 
1.541100 6.268402 3.253625 143.202300 0.212030 -29.772340 
1.540831 6.273399 3.258686 143.298000 0.195695 -29.702300 
1.540240 6.277717 3.261757 143.268400 0.332253 -29.703280 
1.540365 6.281313 3.264496 143.269500 0.406166 -29.735810 
1.541091 6.285037 3.267319 143.262100 0.493396 -29.750550 
1.542189 6.290058 3.269774 143.247400 0.675155 -29.686100 
1.542553 6.294353 3.272915 143.218900 0.785719 -29.661380 
1.542037 6.299516 3.277075 143.192500 0.948089 -29.496890 
1.541775 6.303450 3.281813 143.127500 1.134720 -29.417080 
1.541636 6.306724 3.285775 142.916900 1.367067 -29.334810 
1.542246 6.310299 3.289088 142.558500 1.660541 -29.194980 
1.543414 6.313672 3.290362 141.920300 2.103727 -29.098510 
1.545060 6.317871 3.292077 141.379700 2.468966 -28.875890 
1.546986 6.322002 3.292028 140.847700 2.930749 -28.757970 
1.549048 6.326574 3.290719 140.175100 3.550453 -28.715000 
1.550447 6.330833 3.288434 139.293600 4.075006 -28.584500 
1.552667 6.334352 3.286523 138.625500 4.580027 -28.630650 
1.553100 6.336784 3.283685 137.582300 5.168308 -28.926730 
1.553811 6.337996 3.281723 136.838500 5.509871 -29.227540 
1.553752 6.337919 3.279202 135.888700 5.824777 -29.785370 
1.553869 6.336892 3.277843 135.112600 6.110540 -30.413880 
1.553170 6.335236 3.276152 134.223600 6.400005 -31.085110 
1.552688 6.333275 3.274164 133.471500 6.561992 -31.702090 
1.552279 6.331703 3.272057 132.942400 6.692263 -32.242740 
1.552397 6.330278 3.269936 132.509200 6.785775 -32.711120 
1.552744 6.328799 3.266463 131.862700 6.911930 -33.190550 
1.553668 6.327676 3.264675 131.437700 7.034340 -33.617340 
1.555460 6.326660 3.262145 130.931200 7.088414 -33.949800 
1.557310 6.325434 3.260480 130.368100 7.151428 -34.264010 
1.560836 6.323633 3.259199 129.659600 7.306087 -34.648040 
1.565226 6.320862 3.258606 129.052900 7.376014 -34.850400 
1.569913 6.317551 3.258631 128.155100 7.582723 -35.184330 
1.575721 6.312890 3.260076 127.361500 7.763375 -35.382630 
1.581854 6.309341 3.261386 126.492000 7.904967 -35.483280 
1.588145 6.305749 3.264488 125.585800 8.166773 -35.570500 
1.595098 6.302360 3.267587 125.052900 8.329829 -35.519410 
1.601656 6.298513 3.270556 124.286100 8.460766 -35.453030 
1.608367 6.295159 3.274123 123.632600 8.614497 -35.398680 
1.614803 6.292015 3.277802 123.010400 8.717664 -35.362340 
1.621090 6.288588 3.282219 122.365900 8.866905 -35.408050 
1.627735 6.284811 3.287386 121.816900 8.895557 -35.337130 
1.634332 6.281268 3.292164 121.010800 8.989773 -35.390660 
1.640876 6.277685 3.297667 120.248100 9.144268 -35.342470 
1.647047 6.274903 3.303943 119.568200 9.279750 -35.191930 
1.653966 6.272403 3.309296 119.011400 9.378251 -34.905910 
1.660116 6.270698 3.314221 118.495800 9.519404 -34.641420 
1.666282 6.269423 3.318713 118.127000 9.669666 -34.438600 
1.672626 6.267682 3.322753 117.907300 9.780986 -34.244260 
1.678421 6.265933 3.325761 117.848600 9.812798 -34.003720 
1.683432 6.264484 3.327433 117.763600 9.879638 -33.844020 
1.685995 6.264490 3.324809 117.738200 9.854443 -33.966060 
1.686628 6.265241 3.318345 117.631500 9.764982 -34.173220 
1.687421 6.266365 3.312169 117.649600 9.704382 -34.516910 
1.688258 6.267089 3.305556 117.643100 9.588973 -34.594060 
1.690215 6.266887 3.299115 117.649100 9.548474 -34.800810 
1.692866 6.265972 3.292118 117.394000 9.638422 -35.079960 
1.697470 6.264484 3.284994 117.191900 9.681725 -35.293520 
1.703578 6.263483 3.278026 116.859300 9.866370 -35.573640 
1.712282 6.262842 3.271689 116.540500 9.953681 -35.739320 
1.723410 6.262818 3.266201 116.150300 10.114940 -35.813050 
1.739232 6.265091 3.262170 115.494100 10.185520 -35.592620 
1.759155 6.268659 3.258900 114.593000 10.223270 -35.326600 
1.784569 6.273411 3.256799 113.327700 10.079590 -34.934390 
1.812737 6.278293 3.257044 111.748900 9.944287 -34.591550 
1.844171 6.283018 3.256158 110.080200 9.482607 -34.187870 
1.876235 6.287048 3.253891 108.435300 9.032162 -33.836580 
1.908797 6.289676 3.249107 106.737600 8.492868 -33.712650 
1.941452 6.290154 3.242935 104.926400 7.940738 -33.768430 
1.974352 6.289149 3.235533 103.142400 7.305227 -33.772490 
2.006514 6.287901 3.226801 101.226900 6.593150 -33.891510 
2.038479 6.285465 3.218584 99.224220 5.621409 -33.963200 
2.070959 6.282923 3.210545 97.143960 4.272644 -33.989530 
2.102963 6.279433 3.203849 94.728640 2.866015 -34.076750 
2.135387 6.275846 3.197540 92.120820 1.448101 -34.191250 
2.167412 6.272058 3.192947 89.336560 -0.145783 -34.134030 
2.199035 6.267661 3.189398 86.575490 -1.827454 -33.936950 
2.229244 6.263033 3.187692 83.750490 -3.533936 -33.645840 
2.257836 6.258253 3.186888 80.933770 -5.202789 -33.255070 
2.285058 6.253092 3.187509 78.316350 -6.833008 -32.759400 
2.309200 6.247988 3.188364 75.812300 -8.415497 -32.129090 
2.331618 6.243560 3.190293 73.492320 -9.921234 -31.605930 
2.352416 6.238107 3.192296 71.289120 -11.473570 -30.951020 
2.371763 6.232248 3.195199 69.110150 -12.878110 -30.261230 
2.390853 6.225946 3.196767 67.101100 -14.237000 -29.568330 
2.409681 6.219100 3.198722 65.180400 -15.442380 -29.039520 
2.427658 6.211062 3.200461 63.337910 -16.475890 -28.507450 
2.444688 6.202926 3.202959 61.586560 -17.417760 -27.845730 
2.460889 6.195237 3.206017 59.776640 -18.308200 -27.214720 
2.475670 6.187720 3.209098 57.942540 -19.160610 -26.484800 
2.489371 6.180519 3.213064 56.037500 -19.963750 -25.730960 
2.502204 6.173421 3.216135 54.161270 -20.724980 -24.908360 
2.513232 6.165698 3.218696 52.270100 -21.523190 -24.185390 
2.523150 6.157831 3.220752 50.539850 -22.222660 -23.520360 
2.530861 6.149174 3.222184 48.919890 -22.851200 -22.855620 
2.537529 6.141017 3.222902 47.444140 -23.540800 -22.301850 
2.542120 6.131890 3.223365 46.009780 -24.128140 -21.675110 
2.545377 6.124096 3.224247 44.661110 -24.776400 -21.005490 
2.547077 6.116345 3.225145 43.364320 -25.380430 -20.430760 
2.548033 6.109773 3.226442 42.019420 -26.008880 -19.730290 
2.547807 6.103135 3.227872 40.647220 -26.649540 -19.118290 
2.547401 6.096622 3.229455 39.232640 -27.284970 -18.397980 
2.546523 6.090890 3.230894 37.753280 -27.883360 -17.650700 
2.544920 6.084905 3.232609 36.366340 -28.464170 -16.809360 
2.542882 6.079704 3.234382 34.699710 -29.003660 -15.999150 
2.541004 6.074882 3.236051 33.283500 -29.539430 -15.140750 
2.538440 6.070052 3.237414 31.856230 -30.058930 -14.254610 
2.535659 6.065411 3.238542 30.408300 -30.513670 -13.489960 
2.532359 6.060964 3.238867 29.130430 -30.908660 -12.721680 
2.529396 6.055870 3.239240 27.978640 -31.313930 -11.960510 
2.526609 6.051266 3.239134 27.173060 -31.439000 -11.639010 
2.524970 6.047105 3.239387 26.699010 -31.528560 -11.565190 
2.524591 6.043255 3.240021 26.373990 -31.582760 -11.506380 
2.524401 6.039352 3.240553 26.058820 -31.528720 -11.457790 
2.524273 6.035551 3.241382 25.690210 -31.622620 -11.404880 
2.523690 6.031789 3.242088 25.254870 -31.750490 -11.244080 
2.521844 6.028403 3.241943 24.750760 -31.847020 -11.079530 
2.518079 6.025397 3.242661 24.107690 -31.962340 -10.739990 
2.512571 6.023105 3.243508 23.429010 -32.214360 -10.100860 
2.505810 6.021656 3.244827 22.879600 -32.349210 -9.666595 
2.497890 6.020568 3.246037 22.458930 -32.389620 -9.304626 
2.489247 6.019156 3.246928 22.209430 -32.393980 -8.941559 
2.479817 6.017823 3.247378 22.121520 -32.451930 -8.542480 
2.469170 6.015745 3.247063 21.748820 -32.670010 -8.158936 
2.458683 6.012866 3.246406 21.345570 -32.844790 -7.615265 
2.448304 6.009530 3.244714 20.873260 -33.037140 -7.149841 
2.440451 6.005413 3.243608 20.626810 -33.228790 -6.697540 
2.434273 6.001090 3.243101 20.296180 -33.320530 -6.357300 
2.430239 5.996611 3.242780 20.105960 -33.342710 -6.364014 
2.427460 5.992028 3.242766 19.847770 -33.373440 -6.055511 
2.425633 5.986437 3.241959 19.613450 -33.380650 -5.972290 
2.425260 5.980147 3.240880 19.547510 -33.394650 -6.019897 
2.425134 5.973120 3.239035 19.391880 -33.432620 -6.064240 
2.424864 5.965703 3.237189 19.323010 -33.532810 -6.175751 
2.425490 5.957900 3.235323 19.279590 -33.530400 -6.225922 
2.425896 5.950474 3.234836 19.108490 -33.450470 -6.219574 
2.426296 5.943205 3.235405 18.857740 -33.145940 -6.218353 
2.426574 5.936093 3.237000 18.711980 -32.853610 -6.355042 
2.427422 5.929208 3.238954 18.654030 -32.527950 -6.374237 
2.428619 5.922106 3.240808 18.652850 -32.172880 -6.645844 
2.430208 5.915225 3.243377 18.679470 -31.960880 -6.946533 
2.431803 5.908188 3.246703 18.670090 -31.563720 -7.100433 
2.434130 5.902082 3.250524 18.736170 -31.063050 -7.543762 
